<?xml version="1.0" encoding="UTF-8" standalone="no"?>
<!-- Created with Inkscape (http://www.inkscape.org/) -->

<svg
   xmlns:dc="http://purl.org/dc/elements/1.1/"
   xmlns:cc="http://creativecommons.org/ns#"
   xmlns:rdf="http://www.w3.org/1999/02/22-rdf-syntax-ns#"
   xmlns:svg="http://www.w3.org/2000/svg"
   xmlns="http://www.w3.org/2000/svg"
   xmlns:sodipodi="http://sodipodi.sourceforge.net/DTD/sodipodi-0.dtd"
   xmlns:inkscape="http://www.inkscape.org/namespaces/inkscape"
   width="0.3in"
   height="0.3in"
   viewBox="0 0 27.000002 27.000002"
   id="svg4305"
   version="1.1"
   inkscape:version="0.91 r"
   sodipodi:docname="leaf.svg">
  <defs
     id="defs4307" />
  <sodipodi:namedview
     id="base"
     pagecolor="#ffffff"
     bordercolor="#666666"
     borderopacity="1.0"
     inkscape:pageopacity="0.0"
     inkscape:pageshadow="2"
     inkscape:zoom="5.6"
     inkscape:cx="-11.688525"
     inkscape:cy="4.1372957"
     inkscape:document-units="px"
     inkscape:current-layer="layer1"
     showgrid="false"
     units="in"
     fit-margin-top="0"
     fit-margin-left="0"
     fit-margin-right="0"
     fit-margin-bottom="0"
     inkscape:window-width="1366"
     inkscape:window-height="716"
     inkscape:window-x="0"
     inkscape:window-y="0"
     inkscape:window-maximized="1" />
  <metadata
     id="metadata4310">
    <rdf:RDF>
      <cc:Work
         rdf:about="">
        <dc:format>image/svg+xml</dc:format>
        <dc:type
           rdf:resource="http://purl.org/dc/dcmitype/StillImage" />
        <dc:title></dc:title>
      </cc:Work>
    </rdf:RDF>
  </metadata>
  <g
     inkscape:label="Layer 1"
     inkscape:groupmode="layer"
     id="layer1"
     transform="translate(-132.85992,-618.21596)">
    <g
       id="g134"
       transform="matrix(0.08750126,0,0,-0.08750154,150.05375,629.39591)">
      <path
         d="m 0,0 c -108.151,11.942 -126.9,-128.237 -126.9,-128.237 l 12.665,-2.902 c 1.355,52.709 15.018,79.742 89.084,96.509 0,0 -65.075,-23.882 -67.503,-57.585 C 35.563,-125.151 87.928,5.931 87.928,5.931 70.003,-2.53 53.323,-5.887 0,0"
         style="fill:#373535;fill-opacity:1;fill-rule:nonzero;stroke:none"
         id="path136"
         inkscape:connector-curvature="0" />
    </g>
    <g
       id="g138"
       transform="matrix(0.08750126,0,0,-0.08750154,136.91319,623.33326)">
      <path
         d="M 0,0 C 2.938,-11.539 3.012,-21.769 -6.564,-52.553 -25.983,-114.994 31.388,-131.89 31.388,-131.89 73.2,-56.404 0,0 0,0"
         style="fill:#373535;fill-opacity:1;fill-rule:nonzero;stroke:none"
         id="path140"
         inkscape:connector-curvature="0" />
    </g>
  </g>
</svg>
